<svg xmlns="http://www.w3.org/2000/svg" width="3840" height="2160" viewBox="0 0 3840 2160" version="1.1">
	<path d="M -0 1080 L -0 2160.001 1920.250 2159.750 L 3840.500 2159.500 3840.750 1079.750 L 3841.001 -0 1920.500 -0 L 0 0 -0 1080 M 0.498 1080.500 C 0.498 1674.500, 0.611 1917.350, 0.750 1620.167 C 0.889 1322.984, 0.889 836.984, 0.750 540.167 C 0.611 243.350, 0.498 486.500, 0.498 1080.500 M 1200 590.608 C 1196.975 590.801, 1184.150 591.431, 1171.500 592.008 C 1148.055 593.079, 1112.923 595.580, 1103 596.885 C 1099.975 597.283, 1125.625 597.897, 1160 598.250 C 1194.375 598.603, 1230.600 599.376, 1240.500 599.967 C 1363.761 607.332, 1437.806 616.357, 1543.500 636.898 C 1556.242 639.374, 1587.984 646.714, 1613 652.969 C 1667.440 666.581, 1711.497 680.366, 1754.226 697.158 L 1771.952 704.124 1774.008 711.312 C 1779.118 729.180, 1788.777 759.118, 1795.057 776.550 C 1801.126 793.398, 1820.428 841.651, 1827.308 857.175 C 1830.310 863.948, 1832.004 861.872, 1811.500 876.550 C 1785.638 895.063, 1770.353 909.222, 1757.035 927 C 1725.545 969.037, 1712.279 1042.089, 1726.076 1097.494 C 1739.687 1152.156, 1780.051 1200.396, 1835.536 1228.313 C 1850.240 1235.711, 1879.340 1245.264, 1893.500 1247.341 C 1895.150 1247.583, 1898.075 1248.047, 1900 1248.372 C 1901.925 1248.697, 1915.200 1249.422, 1929.500 1249.982 C 1943.800 1250.543, 1959.325 1251.233, 1964 1251.515 C 1968.675 1251.798, 1980.375 1252.484, 1990 1253.039 C 2081.514 1258.324, 2135.059 1270.193, 2194.213 1298.308 C 2216.453 1308.878, 2230.880 1318.990, 2249.346 1336.951 C 2291.450 1377.901, 2325.929 1436.073, 2350.138 1507 C 2362.313 1542.671, 2369.714 1576.013, 2374.445 1616.500 L 2376.665 1635.500 2377.464 1623.570 C 2379.744 1589.510, 2372.960 1532.725, 2361.388 1489 C 2333.764 1384.626, 2277.262 1307.873, 2198.436 1267.646 C 2186.589 1261.601, 2185.389 1260.671, 2190.500 1261.496 C 2198.677 1262.815, 2222.444 1269.104, 2236.247 1273.601 C 2288.358 1290.580, 2329.490 1314.687, 2363.835 1348.380 C 2400.017 1383.874, 2423.058 1422.771, 2434.992 1468.500 L 2437.863 1479.500 2437.931 1470.628 C 2438.070 1452.749, 2432.804 1427.622, 2424.416 1406.140 C 2399.048 1341.169, 2341.532 1289.049, 2259.500 1256.698 C 2185.891 1227.668, 2101.284 1214.105, 1977.500 1211.491 C 1937.797 1210.652, 1917.116 1207.664, 1890.635 1198.941 C 1836.952 1181.257, 1798.316 1146.745, 1778.681 1098.937 C 1766.061 1068.208, 1763.296 1029.658, 1771.455 998.174 C 1781.868 957.988, 1809.032 924.648, 1845.395 907.423 C 1893.216 884.770, 1953.010 886.339, 2032 912.320 C 2063.194 922.580, 2084.474 931.023, 2129.570 951.031 C 2151.560 960.787, 2178.864 973.530, 2179.814 974.481 C 2180.064 974.730, 2180.645 979.028, 2181.107 984.032 C 2183.020 1004.764, 2189.090 1010.996, 2222 1026.013 C 2244.571 1036.312, 2267.026 1052.292, 2286.389 1071.834 L 2296.277 1081.814 2304.889 1074.655 C 2309.625 1070.718, 2318.111 1064.158, 2323.746 1060.078 C 2329.382 1055.998, 2333.811 1052.478, 2333.590 1052.256 C 2333.368 1052.035, 2329.882 1051.172, 2325.843 1050.339 C 2315.777 1048.263, 2301.899 1042.762, 2293.500 1037.520 C 2285.269 1032.383, 2267.167 1017.600, 2266.282 1015.291 C 2265.904 1014.307, 2266.502 1013.012, 2267.833 1011.934 C 2269.025 1010.969, 2270 1009.307, 2270 1008.240 C 2270 1006.294, 2266.057 1000.232, 2260.969 994.356 C 2259.472 992.627, 2252.744 982.052, 2246.016 970.856 C 2239.289 959.660, 2233.271 950.141, 2232.643 949.702 C 2231.412 948.843, 2216.255 949.663, 2209.165 950.973 C 2205.068 951.730, 2204.430 951.506, 2197.575 946.922 C 2183.796 937.706, 2171.836 924.173, 2164.431 909.418 C 2162.086 904.745, 2159.964 901.276, 2159.715 901.711 C 2158.035 904.649, 2156.830 914.040, 2157.409 919.690 L 2158.072 926.155 2152.018 922.929 C 2139.116 916.052, 2128.386 903.478, 2119.545 884.874 L 2115.119 875.558 2113.837 878.529 C 2113.067 880.316, 2112.545 885.785, 2112.528 892.250 C 2112.511 898.739, 2112.104 902.996, 2111.500 902.990 C 2109.570 902.971, 2100.023 898.090, 2094.259 894.176 C 2082.365 886.099, 2070.407 870.019, 2068.421 859.430 C 2067.579 854.944, 2066.325 855.081, 2065.054 859.799 C 2063.749 864.646, 2063.514 871.318, 2064.455 876.804 L 2065.194 881.108 2061.347 879.463 C 2016.665 860.354, 1964.958 849.570, 1905.500 846.958 C 1881.430 845.900, 1876.639 845.142, 1867.154 840.886 C 1849.064 832.769, 1835.535 817.860, 1823.492 792.773 C 1809.754 764.152, 1800.942 723.656, 1802.293 695.354 L 1802.825 684.209 1793.663 679.947 C 1724.873 647.952, 1607.610 617.809, 1498.500 604.074 C 1417.281 593.850, 1368.319 590.875, 1275.500 590.524 C 1237 590.378, 1203.025 590.416, 1200 590.608 M 1485.500 697.676 C 1377.809 701.352, 1279.403 715.974, 1159.702 746.087 C 1113.547 757.698, 1031.733 781.558, 1036.876 781.907 C 1037.633 781.958, 1042.133 781.119, 1046.876 780.041 C 1051.619 778.964, 1064.050 776.290, 1074.500 774.099 C 1091.687 770.495, 1098.655 769.117, 1123 764.506 C 1180.628 753.592, 1290.358 738.632, 1350.500 733.490 C 1354.350 733.161, 1359.525 732.700, 1362 732.466 C 1412.619 727.673, 1465.278 725.116, 1523.500 724.626 C 1600.645 723.975, 1656.029 727.086, 1726 736.001 C 1738.925 737.648, 1754.616 739.861, 1760.869 740.920 C 1767.122 741.980, 1772.793 742.633, 1773.471 742.373 C 1774.977 741.795, 1774.564 739.044, 1771.384 728.500 C 1768.135 717.725, 1766.035 713.133, 1764.108 712.597 C 1759.582 711.335, 1727 707.140, 1701.500 704.535 C 1677.090 702.042, 1633.475 699.143, 1603.695 698.035 C 1579.266 697.126, 1507.957 696.909, 1485.500 697.676 M 1741.500 758.001 C 1725.731 758.794, 1700.660 761.053, 1686 763.002 C 1619.630 771.825, 1565.570 783.155, 1500 801.985 C 1390.210 833.513, 1283.011 880.138, 1197 933.771 C 1185.621 940.867, 1162.036 956.719, 1158 959.984 C 1156.625 961.097, 1167.425 956.201, 1182 949.105 C 1205.612 937.610, 1214.850 933.328, 1245.626 919.620 C 1250.095 917.629, 1254.301 916, 1254.972 916 C 1255.642 916, 1257.386 915.359, 1258.846 914.576 C 1268.330 909.489, 1344.388 880.597, 1380.328 868.428 C 1461.628 840.902, 1546.538 819.153, 1622 806.526 C 1645.939 802.520, 1681.022 797.553, 1696 796.049 C 1701.775 795.469, 1708.525 794.788, 1711 794.534 C 1716.949 793.926, 1750.195 791.409, 1771.500 789.956 C 1780.850 789.317, 1788.838 788.590, 1789.250 788.339 C 1789.662 788.087, 1790 787.122, 1790 786.192 C 1790 784.234, 1782.409 761.198, 1781.062 759.067 C 1779.923 757.266, 1764.421 756.848, 1741.500 758.001 M 1985.960 787.670 C 2077.546 827.560, 2141.446 869.482, 2198.985 927.427 L 2211.470 940 2216.985 939.930 C 2228.316 939.785, 2228.455 940.096, 2207.946 919.735 C 2167.618 879.698, 2117.177 844.449, 2061.500 817.394 C 2037.753 805.855, 2025.789 800.770, 2002.975 792.518 C 1986.462 786.545, 1977.542 784.004, 1985.960 787.670 M 2237.007 988.250 C 2237.017 993.282, 2241.067 998.365, 2247.963 1002 C 2250.398 1003.284, 2250.408 1003.272, 2248.870 1000.899 C 2248.014 999.580, 2245.403 995.462, 2243.068 991.750 C 2240.732 988.038, 2238.411 985, 2237.910 985 C 2237.410 985, 2237.003 986.462, 2237.007 988.250" stroke="none" fill="#0a80b2" fill-rule="evenodd"/>
</svg>