<svg xmlns="http://www.w3.org/2000/svg" width="3840" height="2160" viewBox="0 0 3840 2160" version="1.1">
	<path d="M 1178 591.501 C 1149.148 592.964, 1111.737 595.682, 1103 596.951 C 1099.676 597.434, 1114.510 597.808, 1140.500 597.897 C 1214.955 598.150, 1271.487 600.858, 1343 607.595 C 1500.529 622.435, 1652.477 656.059, 1762.737 700.478 L 1771.975 704.200 1774.052 711.350 C 1775.195 715.282, 1776.294 719.175, 1776.494 720 C 1778.456 728.061, 1790.194 764.073, 1796.051 780 C 1800.431 791.911, 1818.187 835.995, 1824.508 850.654 C 1829.347 861.874, 1829.648 863.006, 1828.142 864.340 C 1827.239 865.140, 1819.750 870.626, 1811.500 876.532 C 1791.944 890.531, 1783.609 897.544, 1771.472 910.206 C 1750.508 932.078, 1737.391 955.852, 1729.095 987.016 C 1712.239 1050.331, 1719.943 1107.244, 1751.914 1155.592 C 1782.519 1201.874, 1832.944 1235.262, 1889 1246.363 C 1900.802 1248.700, 1907.494 1249.244, 1940 1250.514 C 2008.576 1253.193, 2061.022 1258.112, 2094.523 1265.005 C 2143.388 1275.059, 2195.521 1295.441, 2224 1315.625 C 2238.912 1326.194, 2264.068 1350.761, 2276.608 1367 C 2297.124 1393.569, 2312.931 1419.743, 2328.238 1452.491 C 2353.522 1506.584, 2369.100 1563.186, 2375.166 1623 L 2376.434 1635.500 2377.279 1627.500 C 2378.366 1617.217, 2377.423 1585.995, 2375.457 1567.168 C 2361.728 1435.695, 2303.805 1330.163, 2216.645 1277.823 C 2209.415 1273.481, 2199.698 1268.062, 2195.051 1265.781 C 2190.404 1263.499, 2187.109 1261.464, 2187.729 1261.257 C 2189.862 1260.546, 2222.334 1269.049, 2239.905 1274.919 C 2271.230 1285.385, 2296.498 1297.535, 2321.490 1314.150 C 2366.035 1343.765, 2401.028 1384.201, 2421.311 1429.500 C 2427.080 1442.385, 2433.363 1460.718, 2435.980 1472.302 L 2437.831 1480.500 2437.916 1471.284 C 2438.083 1452.970, 2432.764 1427.140, 2424.462 1405.954 C 2409.273 1367.193, 2380.732 1330.867, 2343.658 1303.110 C 2315.246 1281.837, 2288.597 1267.545, 2251.110 1253.476 C 2199.113 1233.961, 2128.847 1219.907, 2059 1215.053 C 2050.475 1214.460, 2041.250 1213.755, 2038.500 1213.487 C 2035.750 1213.218, 2015.275 1212.547, 1993 1211.995 C 1970.725 1211.444, 1948 1210.514, 1942.500 1209.928 C 1907.140 1206.164, 1872.779 1195.081, 1847.188 1179.184 C 1807.002 1154.222, 1779.774 1115.706, 1769.960 1069.939 C 1766.894 1055.637, 1766.089 1027.604, 1768.339 1013.427 C 1777.487 955.769, 1816.278 912.540, 1872.230 897.648 C 1901.997 889.725, 1939.857 889.710, 1977.334 897.605 C 2015.213 905.586, 2054.619 918.721, 2103 939.495 C 2134.563 953.047, 2177.995 972.870, 2179.884 974.586 C 2180.095 974.777, 2180.645 979.028, 2181.107 984.032 C 2182.891 1003.369, 2188.369 1009.709, 2214 1022.100 C 2236.204 1032.834, 2239.060 1034.383, 2249.500 1041.347 C 2262.067 1049.729, 2275.856 1061.150, 2286.888 1072.314 L 2296.276 1081.815 2304.888 1074.655 C 2309.625 1070.718, 2318.111 1064.158, 2323.746 1060.078 C 2329.382 1055.998, 2333.811 1052.478, 2333.590 1052.256 C 2333.368 1052.035, 2329.882 1051.176, 2325.843 1050.348 C 2314.811 1048.086, 2300.133 1041.944, 2290.812 1035.690 C 2280.380 1028.689, 2266 1016.414, 2266 1014.509 C 2266 1013.718, 2266.900 1012.589, 2268 1012 C 2271.894 1009.916, 2269.722 1004.465, 2260.969 994.356 C 2259.472 992.627, 2252.744 982.052, 2246.016 970.856 C 2239.289 959.660, 2233.271 950.141, 2232.643 949.702 C 2231.413 948.843, 2216.256 949.663, 2209.174 950.971 C 2205.074 951.728, 2204.460 951.509, 2197.478 946.792 C 2183.787 937.543, 2171.632 923.746, 2164.280 909.110 L 2160.061 900.710 2158.842 903.605 C 2158.171 905.197, 2157.605 910.862, 2157.583 916.192 L 2157.544 925.885 2151.675 922.692 C 2138.825 915.702, 2128.319 903.336, 2119.545 884.874 L 2115.119 875.558 2113.837 878.529 C 2113.066 880.318, 2112.545 885.794, 2112.528 892.296 L 2112.500 903.092 2110 902.487 C 2103.990 901.033, 2092.167 893.187, 2084.416 885.508 C 2076.113 877.283, 2069.856 867.082, 2068.421 859.430 C 2067.572 854.907, 2066.322 855.089, 2065.020 859.925 C 2063.678 864.908, 2063.450 871.310, 2064.421 876.759 L 2065.179 881.019 2062.522 880.008 C 2061.061 879.453, 2058.895 878.479, 2057.710 877.845 C 2052.142 874.865, 2019.697 864.414, 2004 860.545 C 1971.249 852.472, 1943.518 848.620, 1906.462 846.997 C 1881.422 845.900, 1876.689 845.164, 1867.154 840.886 C 1850.118 833.242, 1836.968 819.387, 1825.651 797.159 C 1810.934 768.252, 1802.705 734.068, 1802.571 701.279 L 1802.500 684.058 1793.760 679.997 C 1756.810 662.829, 1696.051 643, 1639 629.492 C 1558.234 610.368, 1473.844 598.645, 1372 592.401 C 1335.676 590.174, 1215.209 589.615, 1178 591.501 M 1484.500 697.671 C 1380.585 701.164, 1280.409 715.903, 1165.500 744.607 C 1114.219 757.417, 1034.936 780.270, 1036.467 781.800 C 1036.721 782.055, 1041.108 781.320, 1046.215 780.168 C 1132.696 760.653, 1270.114 739.773, 1356.500 733.021 C 1363.650 732.462, 1371.750 731.794, 1374.500 731.536 C 1470.400 722.552, 1595.379 722.350, 1681.133 731.040 C 1713.752 734.345, 1765.018 740.976, 1770.109 742.548 C 1773.156 743.489, 1775.032 741.998, 1774.388 739.146 C 1773.239 734.053, 1768.957 720.466, 1767.324 716.729 C 1765.592 712.764, 1765.429 712.685, 1755.500 711.069 C 1722.327 705.667, 1656.974 700.047, 1603.500 697.997 C 1580.665 697.122, 1506.857 696.920, 1484.500 697.671 M 1741 758.012 C 1622.822 763.893, 1462.530 804.915, 1332.500 862.555 C 1310.534 872.292, 1262.734 895.899, 1242.819 906.845 C 1215.713 921.743, 1168.630 951.224, 1158 959.954 C 1156.625 961.083, 1167.425 956.196, 1182 949.095 C 1208.698 936.086, 1237.265 923, 1238.967 923 C 1239.472 923, 1241.443 922.081, 1243.346 920.958 C 1245.249 919.835, 1249.230 918.065, 1252.192 917.024 C 1255.154 915.983, 1267.622 911.021, 1279.898 905.997 C 1370.849 868.778, 1479.173 835.176, 1565 817.558 C 1574.625 815.582, 1584.300 813.548, 1586.500 813.036 C 1592.410 811.663, 1633.202 804.630, 1647.500 802.520 C 1666.263 799.750, 1671.204 799.058, 1676 798.525 C 1679.025 798.189, 1684.875 797.502, 1689 796.998 C 1700.601 795.581, 1735.960 792.428, 1750.500 791.515 C 1775.620 789.937, 1789.581 788.761, 1790.194 788.169 C 1790.884 787.504, 1782.832 761.802, 1781.076 759.067 C 1779.913 757.255, 1764.411 756.847, 1741 758.012 M 1985.960 787.670 C 2077.485 827.534, 2141.484 869.520, 2198.985 927.427 L 2211.470 940 2217.485 939.985 C 2228.472 939.957, 2228.451 939.914, 2207.475 919.246 C 2167.559 879.916, 2121.337 847.313, 2067 820.163 C 2041.705 807.524, 2027.478 801.381, 2002.957 792.512 C 1986.459 786.544, 1977.546 784.005, 1985.960 787.670 M 2237.007 988.167 C 2237.017 993.233, 2241.035 998.351, 2247.799 1001.912 C 2249.656 1002.890, 2249.053 1001.438, 2244.657 994.347 C 2241.664 989.521, 2238.717 985.406, 2238.108 985.203 C 2237.444 984.981, 2237.003 986.170, 2237.007 988.167" stroke="none" fill="#01abf4" fill-rule="evenodd"/>
</svg>