<svg xmlns="http://www.w3.org/2000/svg" width="1422" height="1148" viewBox="0 0 1422 1148" version="1.1">
	<path d="M 137.500 108.606 C 134.200 108.795, 120.475 109.427, 107 110.010 C 79.189 111.213, 42.190 113.748, 34 115.013 C 30.669 115.527, 39.146 115.651, 55.500 115.328 C 107.757 114.295, 196.280 118.160, 267 124.563 C 388.553 135.568, 504.052 156.941, 604.500 187.018 C 641.879 198.210, 697.607 218.318, 701.099 221.873 C 701.978 222.768, 703.721 227.550, 704.971 232.500 C 707.810 243.735, 718.484 276.706, 725.638 296.342 C 732.053 313.946, 749.043 356.375, 755.334 370.500 C 758.273 377.100, 759.469 380.893, 758.850 381.656 C 758.334 382.291, 754.444 385.180, 750.206 388.075 C 712.115 414.092, 690.829 434.980, 676.212 460.685 C 658.334 492.126, 648.915 534.044, 650.308 575.973 C 650.931 594.707, 652.519 604.390, 657.991 622.807 C 676.217 684.161, 730.596 737.131, 795.549 756.804 C 818.278 763.688, 830.369 765.431, 866 766.959 C 976.768 771.710, 1029.981 779.388, 1082.438 798.185 C 1117.800 810.857, 1143.827 824.429, 1164 840.718 C 1173.436 848.336, 1195.377 870.816, 1204.295 882 C 1253.834 944.131, 1291.627 1037.353, 1302.403 1124 C 1303.190 1130.325, 1304.189 1138.425, 1304.623 1142 L 1305.413 1148.500 1306.173 1141.500 C 1306.592 1137.650, 1306.702 1127.750, 1306.418 1119.500 C 1303.219 1026.474, 1276.138 939.838, 1230.146 875.500 C 1201.149 834.935, 1162.932 802.442, 1121.291 782.948 C 1105.296 775.460, 1107.038 775.339, 1134.500 782.030 C 1188.788 795.255, 1235.272 817.509, 1274.354 848.983 C 1318.064 884.185, 1349.673 932.166, 1363.628 984.500 L 1367.095 997.500 1366.583 985 C 1364.374 931.028, 1334.914 874.085, 1288.500 834.074 C 1268.397 816.744, 1248.667 803.626, 1223.222 790.671 C 1171.231 764.201, 1108.317 746.832, 1030.814 737.550 C 991.331 732.822, 966.305 731.167, 916.500 729.989 C 864.206 728.753, 848.128 726.614, 818.844 716.996 C 757.637 696.893, 714.840 652.687, 700.187 594.431 C 686.971 541.887, 700.816 487.504, 736.545 451.617 C 759.709 428.351, 790.744 414.203, 828 409.928 C 841.029 408.432, 874.448 409.288, 888.297 411.472 C 940.697 419.733, 999.165 440.473, 1093.500 484.260 L 1109.500 491.687 1110.198 500.668 C 1111.865 522.100, 1117.651 528.181, 1150.806 543.342 C 1174.739 554.286, 1200.716 573.002, 1217.642 591.497 L 1225.336 599.904 1230.985 594.702 C 1234.092 591.841, 1242.565 585.225, 1249.814 580 L 1262.993 570.500 1256.247 568.932 C 1244.817 566.276, 1233.740 562.165, 1225.764 557.619 C 1216.656 552.429, 1202.949 541.900, 1197.619 536 L 1193.780 531.751 1196.626 529.481 L 1199.472 527.212 1197.675 523.444 C 1196.686 521.372, 1193.928 517.386, 1191.544 514.588 C 1189.160 511.790, 1181.924 500.725, 1175.464 490 C 1169.004 479.275, 1162.999 469.670, 1162.118 468.655 C 1160.723 467.046, 1159.558 466.893, 1153.009 467.461 C 1148.879 467.819, 1142.895 468.559, 1139.711 469.107 L 1133.922 470.102 1127.211 465.621 C 1112.606 455.868, 1101.692 443.767, 1093.886 428.672 C 1091.349 423.765, 1089.045 420.144, 1088.768 420.625 C 1086.229 425.029, 1085.557 437.077, 1087.560 442.295 C 1088.690 445.240, 1085.650 444.258, 1077.878 439.168 C 1065.146 430.829, 1055.200 418.280, 1047.036 400.250 C 1045.728 397.362, 1044.362 395, 1044.001 395 C 1042.951 395, 1041 404.707, 1041 409.927 C 1041 412.553, 1041.502 416.142, 1042.116 417.902 C 1042.729 419.662, 1042.971 421.362, 1042.653 421.680 C 1041.626 422.707, 1026.855 415.082, 1019.939 409.955 C 1010.002 402.588, 1002.287 392.339, 998.518 381.500 C 997.562 378.750, 996.540 375.825, 996.246 375 C 995.326 372.412, 993.159 381.086, 993.077 387.685 C 993.035 391.087, 993.439 395.024, 993.975 396.435 C 994.512 397.846, 994.697 399, 994.387 399 C 994.078 399, 988.801 397.022, 982.662 394.605 C 937.536 376.835, 888.866 367.291, 832 365.063 C 812.871 364.313, 809.594 363.929, 802.285 361.578 C 776.987 353.440, 755.827 327.191, 742.971 288 C 734.963 263.590, 730.715 237.626, 731.189 216 L 731.485 202.500 724.492 199.121 C 705.682 190.030, 666.106 175.318, 635.441 166.015 C 535.168 135.597, 426.917 117.916, 295 110.410 C 268.850 108.922, 154.767 107.615, 137.500 108.606 M 424 215.597 C 334.039 218.825, 269.931 226.079, 185.676 242.563 C 131.392 253.184, 66.021 269.206, 13.500 284.763 C 2.714 287.958, 0.449 288.961, 0.200 290.656 L -0.100 292.700 8.200 290.859 C 14.646 289.430, 52.758 282.172, 78.500 277.471 C 118.058 270.248, 192.883 259.469, 231.500 255.431 C 239.200 254.626, 248.875 253.532, 253 253 C 257.125 252.468, 273.550 250.888, 289.500 249.489 C 388.788 240.776, 483.581 239.085, 569.500 244.493 C 607.172 246.864, 659.991 252.708, 687.460 257.543 C 695.138 258.894, 701.831 260, 702.335 260 C 703.569 260, 702.677 255.949, 698.483 242.514 L 694.950 231.197 688.725 230.131 C 659.854 225.189, 603.278 219.810, 550.500 216.989 C 531.243 215.960, 441.431 214.971, 424 215.597 M 664.500 276.647 C 662.300 276.829, 654.650 277.456, 647.500 278.041 C 595.218 282.313, 536.094 292.590, 474.500 308.110 C 352.361 338.887, 235.502 386.188, 140.500 443.301 C 119.612 455.858, 88.658 476.127, 87.495 478.007 C 87.124 478.608, 95.748 474.640, 106.660 469.190 C 193.791 425.669, 294.690 386.716, 392 359.033 C 495.141 329.690, 598.203 311.963, 695 306.915 C 707.375 306.269, 717.842 305.435, 718.259 305.062 C 718.677 304.688, 716.877 298.108, 714.259 290.441 L 709.500 276.500 689 276.408 C 677.725 276.358, 666.700 276.466, 664.500 276.647 M 915.083 305.408 C 915.313 305.633, 921.800 308.595, 929.500 311.991 C 958.768 324.901, 1000.210 346.836, 1024.976 362.526 C 1063.212 386.749, 1095.260 412.359, 1126.099 443.336 C 1140.638 457.939, 1140.717 458, 1145.099 457.882 C 1147.520 457.817, 1150.828 457.478, 1152.451 457.130 L 1155.403 456.497 1145.951 446.585 C 1092.954 391.007, 1013.557 340.373, 934.298 311.606 C 917.290 305.433, 914.038 304.385, 915.083 305.408 M 1165.254 506.562 C 1165.830 511.669, 1167.813 514.236, 1175.397 519.687 C 1181.123 523.804, 1180.990 523.195, 1173.511 511.105 C 1167.078 500.706, 1164.430 499.249, 1165.254 506.562" stroke="none" fill="#09c6ec" fill-rule="evenodd"/>
</svg>